# WaveFront *.obj file (generated by Autodesk ATF)

mtllib kallax_narrow_in_meters.mtl

g Body1

v 0.042000 0.003000 0.042000
v 0.042000 0.003000 0.381000
v 0.368000 0.003000 0.381000
v 0.368000 0.003000 0.042000
v 0.368000 0.400000 0.042000
v 0.042000 0.400000 0.042000
v 0.368000 0.400000 0.381000
v 0.042000 0.003000 0.392000
v 0.042000 0.003000 0.723000
v 0.368000 0.003000 0.723000
v 0.368000 0.003000 0.392000
v 0.042000 0.400000 0.723000
v 0.368000 0.400000 0.723000
v 0.042000 0.400000 0.392000
v 0.368000 0.400000 0.392000
v 0.042000 0.400000 0.381000
v 0.410000 0.000000 0.765000
v 0.410000 0.400000 0.765000
v 0.000000 0.400000 0.765000
v 0.000000 0.000000 0.765000
v 0.410000 0.400000 0.000000
v 0.000000 0.400000 0.000000
v 0.410000 0.000000 0.000000
v 0.000000 0.000000 0.000000
vt 33.900000 32.600000 0.000000
vt 0.000000 32.600000 0.000000
vt 33.900000 0.000000 0.000000
vt 0.000000 0.000000 0.000000
vt -16.300000 -19.700000 0.000000
vt 16.300000 -19.700000 0.000000
vt -16.300000 20.000000 0.000000
vt 16.300000 20.000000 0.000000
vt 39.700000 33.900000 0.000000
vt 0.000000 33.900000 0.000000
vt 39.700000 0.000000 0.000000
vt 0.000000 0.000000 0.000000
vt 33.100000 32.600000 0.000000
vt 0.000000 32.600000 0.000000
vt 33.100000 0.000000 0.000000
vt 0.000000 0.000000 0.000000
vt 0.300000 0.000000 0.000000
vt 40.000000 0.000000 0.000000
vt 0.300000 32.600000 0.000000
vt 40.000000 32.600000 0.000000
vt 0.300000 35.000000 0.000000
vt 40.000000 35.000000 0.000000
vt 0.300000 68.100000 0.000000
vt 40.000000 68.100000 0.000000
vt 39.700000 32.600000 0.000000
vt -0.000000 32.600000 0.000000
vt 39.700000 0.000000 0.000000
vt -0.000000 0.000000 0.000000
vt 0.300000 0.000000 0.000000
vt 40.000000 0.000000 0.000000
vt 0.300000 32.600000 0.000000
vt 40.000000 32.600000 0.000000
vt 39.700000 68.100000 0.000000
vt 0.000000 68.100000 0.000000
vt 39.700000 35.000000 0.000000
vt 0.000000 35.000000 0.000000
vt 0.300000 0.000000 0.000000
vt 40.000000 0.000000 0.000000
vt 0.300000 33.900000 0.000000
vt 40.000000 33.900000 0.000000
vt 2.100000 20.000000 0.000000
vt -38.900000 20.000000 0.000000
vt 2.100000 -20.000000 0.000000
vt -38.900000 -20.000000 0.000000
vt 4.200000 72.300000 0.000000
vt 0.000000 76.500000 0.000000
vt 4.200000 39.200000 0.000000
vt 4.200000 38.100000 0.000000
vt 36.800000 38.100000 0.000000
vt 36.800000 72.300000 0.000000
vt 41.000000 76.500000 0.000000
vt 36.800000 39.200000 0.000000
vt 0.000000 0.000000 0.000000
vt 4.200000 4.200000 0.000000
vt 41.000000 0.000000 0.000000
vt 36.800000 4.200000 0.000000
vt 0.000000 0.000000 0.000000
vt 40.000000 0.000000 0.000000
vt 0.000000 76.500000 0.000000
vt 40.000000 76.500000 0.000000
vt 41.000000 76.500000 0.000000
vt 0.000000 76.500000 0.000000
vt 41.000000 0.000000 0.000000
vt 0.000000 0.000000 0.000000
vt 0.000000 0.000000 0.000000
vt 40.000000 0.000000 0.000000
vt 0.000000 76.500000 0.000000
vt 40.000000 76.500000 0.000000
vt 20.500000 20.000000 0.000000
vt -20.500000 20.000000 0.000000
vt 20.500000 -20.000000 0.000000
vt -20.500000 -20.000000 0.000000
vn 0.000000 100.000000 0.000000
vn 0.000000 100.000000 0.000000
vn 0.000000 100.000000 0.000000
vn 0.000000 100.000000 0.000000
vn 0.000000 0.000000 100.000000
vn 0.000000 0.000000 100.000000
vn 0.000000 0.000000 100.000000
vn 0.000000 0.000000 100.000000
vn -100.000000 0.000000 0.000000
vn -100.000000 0.000000 0.000000
vn -100.000000 0.000000 0.000000
vn -100.000000 0.000000 0.000000
vn 0.000000 100.000000 0.000000
vn 0.000000 100.000000 0.000000
vn 0.000000 100.000000 0.000000
vn 0.000000 100.000000 0.000000
vn 0.000000 0.000000 -100.000000
vn 0.000000 0.000000 -100.000000
vn 0.000000 0.000000 -100.000000
vn 0.000000 0.000000 -100.000000
vn 100.000000 0.000000 0.000000
vn 100.000000 0.000000 0.000000
vn 100.000000 0.000000 0.000000
vn 100.000000 0.000000 0.000000
vn 0.000000 0.000000 100.000000
vn 0.000000 0.000000 100.000000
vn 0.000000 0.000000 100.000000
vn 0.000000 0.000000 100.000000
vn 0.000000 0.000000 -100.000000
vn 0.000000 0.000000 -100.000000
vn 0.000000 0.000000 -100.000000
vn 0.000000 0.000000 -100.000000
vn -100.000000 0.000000 0.000000
vn -100.000000 0.000000 0.000000
vn -100.000000 0.000000 0.000000
vn -100.000000 0.000000 0.000000
vn 100.000000 0.000000 0.000000
vn 100.000000 0.000000 0.000000
vn 100.000000 0.000000 0.000000
vn 100.000000 0.000000 0.000000
vn 0.000000 0.000000 100.000000
vn 0.000000 0.000000 100.000000
vn 0.000000 0.000000 100.000000
vn 0.000000 0.000000 100.000000
vn 0.000000 100.000000 0.000000
vn 0.000000 100.000000 0.000000
vn 0.000000 100.000000 0.000000
vn 0.000000 100.000000 0.000000
vn 0.000000 100.000000 0.000000
vn 0.000000 100.000000 0.000000
vn 0.000000 100.000000 0.000000
vn 0.000000 100.000000 0.000000
vn 0.000000 100.000000 0.000000
vn 0.000000 100.000000 0.000000
vn 0.000000 100.000000 0.000000
vn 0.000000 100.000000 0.000000
vn 100.000000 0.000000 0.000000
vn 100.000000 0.000000 0.000000
vn 100.000000 0.000000 0.000000
vn 100.000000 0.000000 0.000000
vn 0.000000 -100.000000 0.000000
vn 0.000000 -100.000000 0.000000
vn 0.000000 -100.000000 0.000000
vn 0.000000 -100.000000 0.000000
vn -100.000000 0.000000 0.000000
vn -100.000000 0.000000 0.000000
vn -100.000000 0.000000 0.000000
vn -100.000000 0.000000 0.000000
vn 0.000000 0.000000 -100.000000
vn 0.000000 0.000000 -100.000000
vn 0.000000 0.000000 -100.000000
vn 0.000000 0.000000 -100.000000
usemtl Steel_-_Satin
f 1/1/1 2/2/2 4/3/3
f 4/3/3 2/2/2 3/4/4
f 1/5/5 4/6/6 6/7/7
f 6/7/7 4/6/6 5/8/8
f 3/9/9 7/10/10 4/11/11
f 4/11/11 7/10/10 5/12/12
f 8/13/13 9/14/14 11/15/15
f 11/15/15 9/14/14 10/16/16
f 9/17/17 12/18/18 10/19/19
f 10/19/19 12/18/18 13/20/20
f 8/21/21 14/22/22 9/23/23
f 9/23/23 14/22/22 12/24/24
f 11/25/25 15/26/26 8/27/27
f 8/27/27 15/26/26 14/28/28
f 2/29/29 16/30/30 3/31/31
f 3/31/31 16/30/30 7/32/32
f 10/33/33 13/34/34 11/35/35
f 11/35/35 13/34/34 15/36/36
f 1/37/37 6/38/38 2/39/39
f 2/39/39 6/38/38 16/40/40
f 18/41/41 19/42/42 17/43/43
f 17/43/43 19/42/42 20/44/44
f 13/45/45 18/46/46 15/47/47
f 15/47/47 18/46/46 7/48/48
f 15/47/47 7/48/48 16/49/49
f 13/45/45 12/50/50 18/46/46
f 18/46/46 12/50/50 19/51/51
f 19/51/51 12/50/50 14/52/52
f 19/51/51 14/52/52 16/49/49
f 16/49/49 14/52/52 15/47/47
f 18/46/46 21/53/53 7/48/48
f 7/48/48 21/53/53 5/54/54
f 5/54/54 21/53/53 22/55/55
f 5/54/54 22/55/55 6/56/56
f 6/56/56 22/55/55 16/49/49
f 16/49/49 22/55/55 19/51/51
f 23/57/57 21/58/58 17/59/59
f 17/59/59 21/58/58 18/60/60
f 17/61/61 20/62/62 23/63/63
f 23/63/63 20/62/62 24/64/64
f 22/65/65 24/66/66 19/67/67
f 19/67/67 24/66/66 20/68/68
f 22/69/69 21/70/70 24/71/71
f 24/71/71 21/70/70 23/72/72
# 24 vertices
# 72 texture params
# 72 normals
# 44 facets

# 1 groups
